<svg xmlns="http://www.w3.org/2000/svg" height="588pt" version="1.1" viewBox="0 0 588 588.08694" width="588pt">
<g id="surface1">
<path d="M 5.4375 341.179688 L 60.867188 359.285156 C 66.117188 377.914062 73.59375 395.84375 83.136719 412.683594 L 56.4375 464.644531 C 54.855469 467.726562 55.4375 471.472656 57.878906 473.933594 L 113.789062 530.167969 C 116.234375 532.625 119.988281 533.226562 123.078125 531.660156 L 175.039062 504.960938 C 191.882812 514.503906 209.808594 521.980469 228.441406 527.230469 L 246.382812 582.660156 C 247.527344 585.890625 250.597656 588.039062 254.019531 588 L 333.640625 588 C 337.0625 588.039062 340.132812 585.890625 341.277344 582.660156 L 359.433594 527.125 C 378.0625 521.875 395.992188 514.398438 412.832031 504.855469 L 464.792969 531.554688 C 467.875 533.136719 471.621094 532.554688 474.085938 530.113281 L 530.101562 474.097656 C 532.542969 471.632812 533.125 467.886719 531.542969 464.804688 L 504.84375 412.84375 C 514.382812 396.003906 521.863281 378.074219 527.113281 359.445312 L 582.542969 341.5 C 585.773438 340.359375 587.917969 337.289062 587.882812 333.867188 L 587.882812 254.296875 C 587.917969 250.875 585.773438 247.804688 582.542969 246.664062 L 527.113281 228.71875 C 521.878906 210.09375 514.421875 192.160156 504.898438 175.320312 L 531.597656 123.359375 C 533.179688 120.277344 532.597656 116.53125 530.15625 114.066406 L 474.03125 57.941406 C 471.570312 55.503906 467.820312 54.921875 464.738281 56.5 L 412.78125 83.203125 C 395.964844 73.605469 378.050781 66.070312 359.433594 60.773438 L 341.277344 5.339844 C 340.136719 2.109375 337.066406 -0.0351562 333.640625 0 L 254.394531 0 C 250.96875 -0.0351562 247.898438 2.109375 246.757812 5.339844 L 228.867188 60.773438 C 210.238281 66.019531 192.304688 73.496094 175.46875 83.039062 L 123.507812 56.339844 C 120.417969 54.777344 116.660156 55.378906 114.214844 57.835938 L 58.039062 113.960938 C 55.597656 116.421875 55.015625 120.167969 56.597656 123.25 L 83.296875 175.210938 C 73.753906 192.054688 66.277344 209.980469 61.027344 228.613281 L 5.382812 246.714844 C 2.152344 247.855469 0.0078125 250.929688 0.0429688 254.351562 L 0.0429688 333.542969 C 0.0195312 336.984375 2.1875 340.058594 5.4375 341.179688 Z M 69.945312 242.65625 C 72.574219 241.828125 74.585938 239.714844 75.285156 237.046875 C 80.546875 216.839844 88.601562 197.46875 99.210938 179.480469 C 100.519531 177.085938 100.519531 174.191406 99.210938 171.792969 L 73.3125 121.167969 L 121.105469 73.375 L 171.730469 99.273438 C 174.128906 100.582031 177.023438 100.582031 179.417969 99.273438 C 197.4375 88.570312 216.871094 80.445312 237.144531 75.136719 C 239.8125 74.4375 241.925781 72.421875 242.753906 69.796875 L 260.214844 15.753906 L 327.820312 15.753906 L 345.285156 69.847656 C 346.113281 72.476562 348.226562 74.488281 350.890625 75.1875 C 371.097656 80.441406 390.476562 88.496094 408.457031 99.113281 C 410.855469 100.421875 413.75 100.421875 416.148438 99.113281 L 466.773438 73.210938 L 514.566406 121.007812 L 488.667969 171.632812 C 487.359375 174.027344 487.359375 176.921875 488.667969 179.320312 C 499.285156 197.300781 507.335938 216.679688 512.589844 236.886719 C 513.289062 239.550781 515.304688 241.667969 517.929688 242.496094 L 571.972656 259.957031 L 571.972656 327.722656 L 517.929688 345.1875 C 515.304688 346.015625 513.289062 348.128906 512.589844 350.792969 C 507.332031 371 499.277344 390.375 488.667969 408.359375 C 487.359375 410.757812 487.359375 413.652344 488.667969 416.050781 L 514.566406 466.675781 L 466.773438 514.46875 L 416.148438 488.570312 C 413.75 487.261719 410.855469 487.261719 408.457031 488.570312 C 390.472656 499.179688 371.097656 507.230469 350.890625 512.492188 C 348.226562 513.191406 346.113281 515.207031 345.285156 517.832031 L 327.820312 571.875 L 260.269531 571.875 L 242.808594 517.832031 C 241.980469 515.207031 239.863281 513.191406 237.199219 512.492188 C 216.992188 507.230469 197.617188 499.179688 179.632812 488.570312 C 177.234375 487.261719 174.339844 487.261719 171.945312 488.570312 L 121.320312 514.46875 L 73.523438 466.675781 L 99.425781 416.050781 C 100.734375 413.652344 100.734375 410.757812 99.425781 408.359375 C 88.808594 390.378906 80.753906 371 75.5 350.792969 C 74.800781 348.128906 72.789062 346.015625 70.160156 345.1875 L 15.90625 327.722656 L 15.90625 260.171875 Z M 69.945312 242.65625 " style=" stroke:none;fill-rule:nonzero;fill:rgb(0%,0%,0%);fill-opacity:1;" />
<path d="M 294.019531 453.804688 C 382.316406 453.804688 453.902344 382.21875 453.902344 293.921875 C 453.902344 205.621094 382.316406 134.039062 294.019531 134.039062 C 205.71875 134.039062 134.132812 205.621094 134.132812 293.921875 C 134.3125 382.148438 205.789062 453.628906 294.019531 453.804688 Z M 294.019531 150.058594 C 373.472656 150.058594 437.882812 214.464844 437.882812 293.921875 C 437.882812 373.375 373.472656 437.785156 294.019531 437.785156 C 214.5625 437.785156 150.15625 373.375 150.15625 293.921875 C 150.332031 214.539062 214.636719 150.234375 294.019531 150.058594 Z M 294.019531 150.058594 " style=" stroke:none;fill-rule:nonzero;fill:rgb(0%,0%,0%);fill-opacity:1;" />
<path d="M 294.019531 380.644531 C 341.765625 380.644531 380.472656 341.933594 380.472656 294.1875 C 380.472656 246.441406 341.765625 207.730469 294.019531 207.730469 C 246.375 207.730469 207.710938 246.277344 207.5625 293.921875 C 207.46875 341.730469 246.15625 380.554688 293.964844 380.644531 C 293.980469 380.644531 294 380.644531 294.019531 380.644531 Z M 294.019531 223.699219 C 332.921875 223.699219 364.453125 255.230469 364.453125 294.132812 C 364.453125 333.035156 332.921875 364.570312 294.019531 364.570312 C 255.117188 364.570312 223.582031 333.035156 223.582031 294.132812 C 223.582031 294.066406 223.582031 293.988281 223.582031 293.917969 C 223.640625 255.042969 255.144531 223.542969 294.019531 223.484375 Z M 294.019531 223.699219 " style=" stroke:none;fill-rule:nonzero;fill:rgb(0%,0%,0%);fill-opacity:1;" />
</g>
</svg>